{
  "source": "C:\\Users\\Peter\\Desktop\\stuff\\MIUN\\quantitative_research\\video_compression\\videos\\BVI-HD\\BVI-HD_CDVL_videos\\ORIG\\MartialArts_1920x1080_60fps.mp4",
  "output": "C:\\Users\\Peter\\Desktop\\stuff\\MIUN\\quantitative_research\\video_compression\\compressed_videos\\BVI-HD\\vp9\\4\\MartialArts_1920x1080_60fps_vp9.webm",
  "codec": "vp9",
  "ok": "Input #0, mov,mp4,m4a,3gp,3g2,mj2, from 'C:\\Users\\Peter\\Desktop\\stuff\\MIUN\\quantitative_research\\video_compression\\videos\\BVI-HD\\BVI-HD_CDVL_videos\\ORIG\\MartialArts_1920x1080_60fps.mp4':\n  Metadata:\n    major_brand     : isom\n    minor_version   : 512\n    compatible_brands: isomiso2avc1mp41\n    encoder         : Lavf54.28.101\n  Duration: 00:00:05.00, start: 0.000000, bitrate: 120609 kb/s\n  Stream #0:0[0x1](und): Video: h264 (High 4:4:4 Predictive) (avc1 / 0x31637661), yuv420p(progressive), 1920x1080, 120605 kb/s, 60 fps, 60 tbr, 60 tbn (default)\n    Metadata:\n      handler_name    : VideoHandler\n      vendor_id       : [0][0][0][0]\n[out#0/webm @ 00000296435c8f80] Codec AVOption b:a (set bitrate (in bits/s)) has not been used for any stream. The most likely reason is either wrong type (e.g. a video option with no video streams) or that it is a private option of some decoder which was not actually used for any stream.\nStream mapping:\n  Stream #0:0 -> #0:0 (h264 (native) -> vp9 (libvpx-vp9))\nPress [q] to stop, [?] for help\n[libvpx-vp9 @ 00000296451c05c0] v1.15.2-100-g40561f514\nOutput #0, webm, to 'C:\\Users\\Peter\\Desktop\\stuff\\MIUN\\quantitative_research\\video_compression\\compressed_videos\\BVI-HD\\vp9\\4\\MartialArts_1920x1080_60fps_vp9.webm':\n  Metadata:\n    major_brand     : isom\n    minor_version   : 512\n    compatible_brands: isomiso2avc1mp41\n    encoder         : Lavf62.3.100\n  Stream #0:0(und): Video: vp9, yuv420p(tv, progressive), 1920x1080, q=2-31, 4000 kb/s, 60 fps, 1k tbn (default)\n    Metadata:\n      encoder         : Lavc62.11.100 libvpx-vp9\n      handler_name    : VideoHandler\n      vendor_id       : [0][0][0][0]\n    Side data:\n      cpb: bitrate max/min/avg: 0/0/0 buffer size: 4000000 vbv_delay: N/A\nframe=    0 fps=0.0 q=0.0 size=       0KiB time=N/A bitrate=N/A speed=N/A elapsed=0:00:00.53    \nframe=    7 fps=6.6 q=31.0 size=       1KiB time=00:00:00.11 bitrate=  43.4kbits/s speed=0.11x elapsed=0:00:01.05    \nframe=   12 fps=7.5 q=25.0 size=       1KiB time=00:00:00.20 bitrate=  25.3kbits/s speed=0.125x elapsed=0:00:01.60    \nframe=   16 fps=7.6 q=24.0 size=       1KiB time=00:00:00.26 bitrate=  19.0kbits/s speed=0.126x elapsed=0:00:02.10    \nframe=   20 fps=7.6 q=23.0 size=       1KiB time=00:00:00.33 bitrate=  15.2kbits/s speed=0.127x elapsed=0:00:02.62    \nframe=   24 fps=7.6 q=22.0 size=       1KiB time=00:00:00.40 bitrate=  12.7kbits/s speed=0.127x elapsed=0:00:03.15    \nframe=   28 fps=7.5 q=22.0 size=       1KiB time=00:00:00.46 bitrate=  10.9kbits/s speed=0.125x elapsed=0:00:03.72    \nframe=   33 fps=7.7 q=23.0 size=       1KiB time=00:00:00.55 bitrate=   9.2kbits/s speed=0.128x elapsed=0:00:04.29    \nframe=   38 fps=7.8 q=23.0 size=       1KiB time=00:00:00.63 bitrate=   8.0kbits/s speed=0.131x elapsed=0:00:04.84    \nframe=   43 fps=8.0 q=25.0 size=       1KiB time=00:00:00.71 bitrate=   7.1kbits/s speed=0.133x elapsed=0:00:05.39    \nframe=   48 fps=8.1 q=26.0 size=       1KiB time=00:00:00.80 bitrate=   6.3kbits/s speed=0.134x elapsed=0:00:05.94    \nframe=   52 fps=7.9 q=26.0 size=       1KiB time=00:00:00.86 bitrate=   5.8kbits/s speed=0.132x elapsed=0:00:06.54    \nframe=   57 fps=8.0 q=27.0 size=       1KiB time=00:00:00.95 bitrate=   5.3kbits/s speed=0.134x elapsed=0:00:07.08    \nframe=   62 fps=8.1 q=27.0 size=       1KiB time=00:00:01.03 bitrate=   4.9kbits/s speed=0.136x elapsed=0:00:07.62    \nframe=   68 fps=8.3 q=27.0 size=       1KiB time=00:00:01.13 bitrate=   4.5kbits/s speed=0.139x elapsed=0:00:08.17    \nframe=   73 fps=8.4 q=12.0 size=       1KiB time=00:00:01.21 bitrate=   4.2kbits/s speed=0.14x elapsed=0:00:08.70    \nframe=   78 fps=8.5 q=26.0 size=       1KiB time=00:00:01.30 bitrate=   3.9kbits/s speed=0.141x elapsed=0:00:09.22    \nframe=   83 fps=8.5 q=27.0 size=       1KiB time=00:00:01.38 bitrate=   3.7kbits/s speed=0.141x elapsed=0:00:09.78    \nframe=   87 fps=8.4 q=26.0 size=       1KiB time=00:00:01.45 bitrate=   3.5kbits/s speed=0.14x elapsed=0:00:10.34    \nframe=   93 fps=8.5 q=26.0 size=       1KiB time=00:00:01.55 bitrate=   3.3kbits/s speed=0.142x elapsed=0:00:10.88    \nframe=   99 fps=8.7 q=25.0 size=       1KiB time=00:00:01.65 bitrate=   3.1kbits/s speed=0.145x elapsed=0:00:11.40    \nframe=  104 fps=8.7 q=25.0 size=       1KiB time=00:00:01.73 bitrate=   2.9kbits/s speed=0.145x elapsed=0:00:11.92    \nframe=  110 fps=8.8 q=26.0 size=       1KiB time=00:00:01.83 bitrate=   2.8kbits/s speed=0.147x elapsed=0:00:12.43    \nframe=  116 fps=8.9 q=25.0 size=       1KiB time=00:00:01.93 bitrate=   2.6kbits/s speed=0.149x elapsed=0:00:12.97    \nframe=  120 fps=8.9 q=23.0 size=       1KiB time=00:00:02.00 bitrate=   2.5kbits/s speed=0.148x elapsed=0:00:13.52    \nframe=  126 fps=9.0 q=24.0 size=       1KiB time=00:00:02.08 bitrate=   2.4kbits/s speed=0.148x elapsed=0:00:14.05    \nframe=  129 fps=8.8 q=12.0 size=       1KiB time=00:00:02.15 bitrate=   2.4kbits/s speed=0.147x elapsed=0:00:14.60    \nframe=  136 fps=9.0 q=22.0 size=     768KiB time=00:00:02.25 bitrate=2796.2kbits/s speed=0.149x elapsed=0:00:15.13    \nframe=  139 fps=8.9 q=22.0 size=     768KiB time=00:00:02.30 bitrate=2735.4kbits/s speed=0.146x elapsed=0:00:15.70    \nframe=  142 fps=8.7 q=22.0 size=     768KiB time=00:00:02.35 bitrate=2677.2kbits/s speed=0.144x elapsed=0:00:16.27    \nframe=  145 fps=8.6 q=24.0 size=     768KiB time=00:00:02.41 bitrate=2603.4kbits/s speed=0.144x elapsed=0:00:16.82    \nframe=  149 fps=8.6 q=25.0 size=     768KiB time=00:00:02.48 bitrate=2533.5kbits/s speed=0.143x elapsed=0:00:17.34    \nframe=  151 fps=8.5 q=25.0 size=     768KiB time=00:00:02.51 bitrate=2499.9kbits/s speed=0.141x elapsed=0:00:17.86    \nframe=  156 fps=8.5 q=26.0 size=     768KiB time=00:00:02.60 bitrate=2419.8kbits/s speed=0.141x elapsed=0:00:18.38    \nframe=  160 fps=8.5 q=26.0 size=     768KiB time=00:00:02.66 bitrate=2359.3kbits/s speed=0.141x elapsed=0:00:18.91    \nframe=  164 fps=8.4 q=13.0 size=     768KiB time=00:00:02.73 bitrate=2301.8kbits/s speed=0.141x elapsed=0:00:19.44    \nframe=  169 fps=8.5 q=29.0 size=     768KiB time=00:00:02.81 bitrate=2233.7kbits/s speed=0.141x elapsed=0:00:19.96    \nframe=  174 fps=8.5 q=30.0 size=     768KiB time=00:00:02.90 bitrate=2169.5kbits/s speed=0.141x elapsed=0:00:20.50    \nframe=  177 fps=8.4 q=30.0 size=     768KiB time=00:00:02.95 bitrate=2132.7kbits/s speed=0.14x elapsed=0:00:21.03    \nframe=  181 fps=8.4 q=31.0 size=     768KiB time=00:00:03.01 bitrate=2085.6kbits/s speed=0.14x elapsed=0:00:21.54    \nframe=  186 fps=8.4 q=31.0 size=     768KiB time=00:00:03.08 bitrate=2040.5kbits/s speed=0.139x elapsed=0:00:22.11    \nframe=  189 fps=8.3 q=31.0 size=     768KiB time=00:00:03.15 bitrate=1997.3kbits/s speed=0.139x elapsed=0:00:22.70    \nframe=  193 fps=8.3 q=29.0 size=     768KiB time=00:00:03.21 bitrate=1955.9kbits/s speed=0.138x elapsed=0:00:23.23    \nframe=  197 fps=8.3 q=28.0 size=     768KiB time=00:00:03.28 bitrate=1916.2kbits/s speed=0.138x elapsed=0:00:23.79    \nframe=  201 fps=8.3 q=28.0 size=     768KiB time=00:00:03.35 bitrate=1878.0kbits/s speed=0.138x elapsed=0:00:24.34    \nframe=  207 fps=8.3 q=28.0 size=     768KiB time=00:00:03.45 bitrate=1823.6kbits/s speed=0.139x elapsed=0:00:24.86    \nframe=  211 fps=8.3 q=28.0 size=     768KiB time=00:00:03.51 bitrate=1789.0kbits/s speed=0.138x elapsed=0:00:25.39    \nframe=  216 fps=8.3 q=27.0 size=     768KiB time=00:00:03.58 bitrate=1755.8kbits/s speed=0.138x elapsed=0:00:25.93    \nframe=  220 fps=8.3 q=26.0 size=     768KiB time=00:00:03.66 bitrate=1715.9kbits/s speed=0.138x elapsed=0:00:26.54    \nframe=  223 fps=8.2 q=26.0 size=     768KiB time=00:00:03.71 bitrate=1692.8kbits/s speed=0.137x elapsed=0:00:27.07    \nframe=  228 fps=8.3 q=25.0 size=     768KiB time=00:00:03.80 bitrate=1655.6kbits/s speed=0.138x elapsed=0:00:27.63    \nframe=  232 fps=8.2 q=24.0 size=     768KiB time=00:00:03.86 bitrate=1627.1kbits/s speed=0.137x elapsed=0:00:28.21    \nframe=  236 fps=8.2 q=13.0 size=     768KiB time=00:00:03.93 bitrate=1599.5kbits/s speed=0.137x elapsed=0:00:28.75    \nframe=  241 fps=8.2 q=25.0 size=     768KiB time=00:00:04.01 bitrate=1566.3kbits/s speed=0.137x elapsed=0:00:29.27    \nframe=  245 fps=8.2 q=26.0 size=     768KiB time=00:00:04.08 bitrate=1540.8kbits/s speed=0.137x elapsed=0:00:29.80    \nframe=  250 fps=8.2 q=28.0 size=     768KiB time=00:00:04.16 bitrate=1509.9kbits/s speed=0.137x elapsed=0:00:30.34    \nframe=  254 fps=8.2 q=29.0 size=     768KiB time=00:00:04.23 bitrate=1486.2kbits/s speed=0.137x elapsed=0:00:30.87    \nframe=  258 fps=8.2 q=26.0 size=    1792KiB time=00:00:04.30 bitrate=3414.0kbits/s speed=0.137x elapsed=0:00:31.41    \nframe=  263 fps=8.2 q=27.0 size=    1792KiB time=00:00:04.38 bitrate=3349.1kbits/s speed=0.137x elapsed=0:00:31.96    \nframe=  268 fps=8.2 q=26.0 size=    1792KiB time=00:00:04.46 bitrate=3286.6kbits/s speed=0.137x elapsed=0:00:32.55    \nframe=  272 fps=8.2 q=26.0 size=    1792KiB time=00:00:04.51 bitrate=3250.2kbits/s speed=0.136x elapsed=0:00:33.16    \nframe=  276 fps=8.2 q=27.0 size=    1792KiB time=00:00:04.60 bitrate=3191.3kbits/s speed=0.136x elapsed=0:00:33.70    \nframe=  276 fps=8.1 q=27.0 size=    1792KiB time=00:00:04.60 bitrate=3191.3kbits/s speed=0.134x elapsed=0:00:34.22    \nframe=  276 fps=7.9 q=27.0 size=    1792KiB time=00:00:04.60 bitrate=3191.3kbits/s speed=0.132x elapsed=0:00:34.76    \nframe=  276 fps=7.8 q=27.0 size=    1792KiB time=00:00:04.60 bitrate=3191.3kbits/s speed=0.13x elapsed=0:00:35.29    \nframe=  276 fps=7.7 q=27.0 size=    1792KiB time=00:00:04.60 bitrate=3191.3kbits/s speed=0.128x elapsed=0:00:35.81    \nframe=  276 fps=7.6 q=27.0 size=    1792KiB time=00:00:04.60 bitrate=3191.3kbits/s speed=0.127x elapsed=0:00:36.35    \n[out#0/webm @ 00000296435c8f80] video:2357KiB audio:0KiB subtitle:0KiB other streams:0KiB global headers:0KiB muxing overhead: 0.118160%\nframe=  300 fps=8.2 q=30.0 Lsize=    2360KiB time=00:00:05.00 bitrate=3866.5kbits/s speed=0.136x elapsed=0:00:36.77    \n",
  "seconds": 37.38679766654968,
  "probe_out": {}
}